 <svg width="876" height="597" viewBox="0 0 876 597" fill="none" xmlns="http://www.w3.org/2000/svg">
                    <g filter="url(#filter0_d)">
                        <g clip-path="url(#clip0)">
                            <path
                                d="M763.024 169.73H646.991C631.286 127.217 624.465 87.6886 646.991 58.0167C646.991 50.3979 648.491 42.8536 651.407 35.8147C654.323 28.7758 658.596 22.3801 663.983 16.9927C669.371 11.6054 675.767 7.33189 682.805 4.41628C689.844 1.50066 697.389 1.59488e-05 705.007 1.59488e-05H705.008C714.267 -0.00685329 723.393 2.20534 731.621 6.45126C739.85 10.6972 746.941 16.8532 752.301 24.4036C761.469 37.2806 763.306 53.8801 758.049 68.7878C748.679 95.3572 754.4 131.612 763.024 169.73Z"
                                fill="#2F2E41" />
                            <path
                                d="M824.306 588.5C820.948 588.5 817.679 587.424 814.977 585.429C812.276 583.434 810.286 580.625 809.298 577.416L804.518 561.88C803.412 558.285 803.199 554.474 803.898 550.778L807.154 533.569H829.99L839.467 568.71C840.094 571.037 840.178 573.478 839.71 575.843C839.243 578.208 838.237 580.433 836.771 582.347C835.305 584.26 833.418 585.811 831.256 586.878C829.095 587.945 826.717 588.5 824.306 588.5Z"
                                fill="#2F2E41" />
                            <path
                                d="M657.921 588.5C661.279 588.5 664.549 587.424 667.25 585.429C669.951 583.434 671.942 580.625 672.929 577.416L677.709 561.88C678.816 558.285 679.028 554.474 678.329 550.778L675.073 533.569H652.237L642.761 568.71C642.133 571.037 642.05 573.478 642.517 575.843C642.985 578.208 643.99 580.433 645.456 582.347C646.922 584.26 648.809 585.811 650.971 586.878C653.132 587.945 655.511 588.5 657.921 588.5Z"
                                fill="#2F2E41" />
                            <path
                                d="M831.842 535.421H806.537L696.675 326.807L676.407 535.421H654.088C642.638 404.053 614.78 278.921 654.088 231.759L746.051 240.399L831.842 535.421Z"
                                fill="#2F2E41" />
                            <path
                                d="M701.922 90.7283C718.965 90.7283 732.781 76.9119 732.781 59.8684C732.781 42.8249 718.965 29.0084 701.922 29.0084C684.878 29.0084 671.061 42.8249 671.061 59.8684C671.061 76.9119 684.878 90.7283 701.922 90.7283Z"
                                fill="#C57B86" />
                            <path
                                d="M745.434 178.679H676.925L665.198 124.366C687.949 117.645 693.373 102.012 688.652 81.1618L725.684 78.693C727.783 95.4884 731.623 111.149 755.309 113.873L745.434 178.679Z"
                                fill="#C57B86" />
                            <path
                                d="M745.434 246.571C706.565 261.329 674.944 260.869 652.854 240.399C662.823 207.526 663.419 167.046 659.026 122.514L671.37 116.959L675.69 156.46L736.793 153.374L750.372 110.17L763.95 113.256C764.991 166.823 761.783 215.012 745.434 246.571Z"
                                fill="#FFFF00" />
                            <path
                                d="M781.232 313.229L788.489 336.814C789.077 338.725 789.208 340.747 788.872 342.718C788.536 344.689 787.742 346.553 786.555 348.161C785.367 349.769 783.818 351.076 782.034 351.977C780.249 352.878 778.277 353.347 776.278 353.347C774.489 353.347 772.719 352.971 771.084 352.243C769.449 351.516 767.985 350.452 766.787 349.123C765.589 347.793 764.684 346.227 764.13 344.525C763.576 342.823 763.386 341.024 763.572 339.244L766.419 311.994L754.692 219.414L763.333 178.679H784.935L781.232 313.229Z"
                                fill="#C57B86" />
                            <path
                                d="M608.369 308.323L595.615 329.449C594.582 331.161 593.965 333.091 593.814 335.084C593.662 337.078 593.981 339.079 594.744 340.927C595.507 342.775 596.693 344.418 598.206 345.724C599.72 347.03 601.519 347.962 603.458 348.447C605.195 348.88 607.003 348.944 608.766 348.634C610.528 348.324 612.206 347.647 613.69 346.647C615.175 345.647 616.432 344.346 617.382 342.829C618.331 341.312 618.951 339.613 619.202 337.841L623.039 310.713L656.839 223.729L663.655 182.074L637.362 176.883L608.369 308.323Z"
                                fill="#C57B86" />
                            <path
                                d="M800.365 183.617L759.63 183V112.022L765.902 112.936C772.558 113.907 778.695 117.088 783.326 121.968C787.956 126.848 790.811 133.144 791.431 139.842L800.365 183.617Z"
                                fill="#FFFF00" />
                            <path
                                d="M626.315 191.023L667.05 190.406V119.428L660.778 120.343C654.121 121.314 647.984 124.495 643.354 129.375C638.723 134.255 635.868 140.55 635.248 147.249L626.315 191.023Z"
                                fill="#FFFF00" />
                            <path
                                d="M730.313 45.0556C717.204 52.4727 692.011 55.8655 673.53 50.6104L667.358 18.516H728.461L730.313 45.0556Z"
                                fill="#2F2E41" />
                            <path d="M245 426H44V588H245V426Z" fill="#F9A826" />
                            <path d="M161.5 541H127.5V587H161.5V541Z" fill="#3F3D56" />
                            <path d="M492.026 430.784L497.376 416.518L547.307 387.986L581.189 380.853L492.026 430.784Z"
                                fill="#F9A826" />
                            <path d="M308.352 430.784L303.002 416.518L253.071 387.986L219.189 380.853L308.352 430.784Z"
                                fill="#F9A826" />
                            <path d="M495.593 434.35H304.785L288.736 359.454H511.642L495.593 434.35Z" fill="#F9A826" />
                            <path opacity="0.1" d="M495.593 434.35H304.785L288.736 359.454H511.642L495.593 434.35Z"
                                fill="black" />
                            <path d="M496.484 429.892H303.893V588H496.484V429.892Z" fill="#F9A826" />
                            <path d="M417.189 540.977H383.189V586.977H417.189V540.977Z" fill="#3F3D56" />
                            <path d="M871.543 588.19H4V586.008H871.939L871.543 588.19Z" fill="#3F3D56" />
                            <path d="M440.189 462.25H360.189V487.25H440.189V462.25Z" fill="white" />
                            <path d="M183.969 462.25H103.969V487.25H183.969V462.25Z" fill="white" />
                        </g>
                    </g>
                    <defs>
                        <filter id="filter0_d" x="0" y="0" width="875.939" height="596.5" filterUnits="userSpaceOnUse"
                            color-interpolation-filters="sRGB">
                            <feFlood flood-opacity="0" result="BackgroundImageFix" />
                            <feColorMatrix in="SourceAlpha" type="matrix"
                                values="0 0 0 0 0 0 0 0 0 0 0 0 0 0 0 0 0 0 127 0" />
                            <feOffset dy="4" />
                            <feGaussianBlur stdDeviation="2" />
                            <feColorMatrix type="matrix" values="0 0 0 0 0 0 0 0 0 0 0 0 0 0 0 0 0 0 0.25 0" />
                            <feBlend mode="normal" in2="BackgroundImageFix" result="effect1_dropShadow" />
                            <feBlend mode="normal" in="SourceGraphic" in2="effect1_dropShadow" result="shape" />
                        </filter>
                        <clipPath id="clip0">
                            <rect width="867.939" height="588.5" fill="white" transform="translate(4)" />
                        </clipPath>
                    </defs>
                </svg>