<svg width="829" height="511" viewBox="0 0 829 511" fill="none" xmlns="http://www.w3.org/2000/svg">
                    <path
                        d="M439.326 126.028L439.3 126.202L439.229 126.705L431.902 179.283L387.038 195.744L386.335 195.408L361.217 183.479L348.229 133.645L347.339 130.224L347.61 130.12L403.176 109.244L439.293 126.008L439.326 126.028Z"
                        fill="#F9A826" />
                    <path
                        d="M386.335 195.408L361.217 183.479L347.339 130.224L347.61 130.12L383.811 145.393L386.335 195.408Z"
                        fill="#F9A826" />
                    <path opacity="0.2"
                        d="M386.965 194.8L367.859 158.186L370.313 147.806L358.756 134.197L357.772 135.033L368.906 148.144L360.589 183.33L361.846 183.628L367.405 160.107L385.82 195.397L386.965 194.8Z"
                        fill="black" />
                    <path
                        d="M439.326 126.673L439.229 126.705L383.811 146.039L348.229 133.645L347.339 130.224L347.61 130.12L403.176 109.244L439.293 126.008L439.3 126.202L439.326 126.673Z"
                        fill="#3F3D56" />
                    <path
                        d="M384.779 147.007L373.482 138.293L376.064 128.61L408.34 116.99L430.288 118.281L439.003 125.705L439.648 127.641L384.779 147.007Z"
                        fill="#F9A826" />
                    <path
                        d="M347.984 130.224L373.482 129.255L387.295 124.567L408.831 116.99L412.859 111.181L402.809 109.382L347.984 130.224Z"
                        fill="#F9A826" />
                    <path d="M398.785 119.836L385.49 124.502L385.917 125.72L399.212 121.054L398.785 119.836Z"
                        fill="#CCCCCC" />
                    <path d="M223.668 44.344L217.435 75.507L246.521 97.322L260.026 56.809L223.668 44.344Z"
                        fill="#9F616A" />
                    <path
                        d="M247.041 72.9105C262.531 72.9105 275.088 60.3533 275.088 44.8632C275.088 29.3731 262.531 16.8159 247.041 16.8159C231.551 16.8159 218.993 29.3731 218.993 44.8632C218.993 60.3533 231.551 72.9105 247.041 72.9105Z"
                        fill="#9F616A" />
                    <path
                        d="M186.272 257.373C186.4 266.422 225.811 367.131 220.339 380.244C211.713 389.061 193.159 435.991 185.232 448.511C184.194 448.51 179 464.092 179 464.092C179 464.092 191.465 483.829 204.97 475.519C221.95 435.582 264.475 413.307 265.227 361.256C267.279 377.699 273.339 483.244 273.339 483.244C273.339 483.244 272.176 483.738 298.339 486.244C302.4 424.987 318.999 320.769 281.839 255.295C270.413 250.102 186.272 257.373 186.272 257.373Z"
                        fill="#2F2F2F" />
                    <path
                        d="M273.337 481.19C272.122 483.525 263.413 505.083 271.339 507.244C280.479 509.737 289.339 506.244 289.339 506.244C289.339 506.244 305.339 511.244 315.13 504.889C319.7 500.319 318.662 496.165 316.481 493.153C315.373 491.669 313.954 490.445 312.324 489.566C310.693 488.687 308.891 488.175 307.042 488.065C302.073 487.711 300.495 486.79 299.926 484.513C299.095 481.19 273.337 481.19 273.337 481.19Z"
                        fill="#2F2E41" />
                    <path
                        d="M187.864 462.365C187.864 462.365 165.537 469.415 170.238 477.641C173.29 482.739 177.747 486.849 183.076 489.479C183.076 489.479 187.732 508.676 200.658 508.676C207.121 508.676 209.324 505.003 209.912 501.331C210.177 499.498 210.04 497.63 209.508 495.856C208.977 494.081 208.065 492.445 206.835 491.06C203.572 487.296 203.107 485.529 204.315 483.516C206.078 480.578 187.864 462.365 187.864 462.365Z"
                        fill="#2F2E41" />
                    <path
                        d="M287.039 260.414C287.039 260.414 282.879 268.724 266.259 265.604C249.639 262.494 184.199 265.604 184.199 265.604C184.199 265.604 187.829 191.334 179.519 146.664C171.209 101.994 203.929 76.5441 203.929 76.5441L214.319 66.154C224.709 65.124 246.649 97.364 246.649 97.364C253.869 98.574 260.609 129.264 266.359 158.304C266.699 159.964 267.019 161.604 267.339 163.244C269.989 176.784 273.679 191.854 275.889 205.384C276.049 206.344 276.199 207.294 276.339 208.244C278.966 225.814 282.537 243.229 287.039 260.414V260.414Z"
                        fill="#02CCE8" />
                    <path
                        d="M214.229 27.3993C214.229 27.3993 208.985 15.8628 222.619 10.6189C222.619 10.6189 234.156 -8.25913 257.229 4.32622C257.229 4.32622 272.961 10.6189 272.961 27.3993C272.961 44.1797 278.204 47.326 278.204 47.326C278.204 47.326 270.395 39.3147 268.298 33.022C266.2 26.7294 249.887 25.3018 243.595 31.5944C237.302 37.8871 221.571 36.8383 221.571 36.8383L222.619 59.9114C222.619 59.9114 217.375 46.2773 215.278 46.2773C213.18 46.2773 211.083 27.3993 214.229 27.3993Z"
                        fill="#2F2E41" />
                    <path opacity="0.2"
                        d="M275.889 205.384C251.109 191.914 210.969 162.374 198.019 146.394C180.949 125.344 199.569 109.344 199.569 109.344C220.679 96.024 245.919 141.724 245.919 141.724L266.359 158.304C266.699 159.964 267.019 161.604 267.339 163.244C269.989 176.784 273.679 191.854 275.889 205.384Z"
                        fill="black" />
                    <path
                        d="M349.862 189.861C349.862 189.861 386.702 204.817 392.766 188.005C398.829 171.193 363.68 171.482 363.68 171.482L349.881 173.437L349.862 189.861Z"
                        fill="#9F616A" />
                    <path
                        d="M194.847 102.503C194.847 102.503 176.236 118.512 193.293 139.555C210.351 160.598 288.744 205.56 288.744 205.56L339.808 191.755L354.259 194.4L356.983 167.269L335.694 169.347L281.653 157.841L247.193 129.879C247.193 129.879 215.951 89.19 194.847 102.503Z"
                        fill="#02CCE8" />
                    <path opacity="0.2" d="M262.646 295.362L265.902 371.443L257.646 295.362H262.646Z" fill="black" />
                    <path
                        d="M611.043 245.276L604.479 225.582L643.834 212.14L633.389 120.154C652.195 123.573 661.145 138.362 660.307 157.458L665.399 220.226L611.043 245.276Z"
                        fill="#FF00C7" />
                    <path
                        d="M638.235 99.8737H702.533V67.8983C702.556 59.2625 699.172 50.9662 693.116 44.8098C690.158 41.7767 686.623 39.3675 682.718 37.7245C678.813 36.0815 674.618 35.2381 670.382 35.2442C661.922 35.2598 653.807 38.6045 647.794 44.5553C641.78 50.506 638.35 58.5845 638.245 67.0442C638.24 67.337 638.235 67.6152 638.235 67.8983L638.235 99.8737Z"
                        fill="#2F2E41" />
                    <path
                        d="M729.418 475.63L708.864 473.271L684.267 307.158L633.389 473.945L611.151 474.619L636.421 269.42L632.715 222.585L695.724 202.705C740.35 233.858 739.427 343.893 729.418 475.63Z"
                        fill="#616161" />
                    <path
                        d="M702.799 211.803C679.743 226.466 652.886 243.31 633.052 226.965L623.618 181.141C616.119 174.462 619.444 153.853 629.581 124.477C630.225 122.612 631.285 120.918 632.681 119.524C634.076 118.13 635.771 117.072 637.636 116.43L653.269 111.057C660.197 116.883 671.553 113.408 684.941 105.666L700.441 109.709L707.18 160.25C697.452 174.825 699.151 194.232 702.799 211.803Z"
                        fill="#FF00C7" />
                    <path
                        d="M614.182 240.939L584.623 247.788C582.337 248.317 579.934 247.935 577.925 246.721C575.916 245.507 574.459 243.558 573.865 241.288V241.288C573.52 239.971 573.478 238.593 573.741 237.258C574.005 235.922 574.567 234.664 575.386 233.577C576.205 232.49 577.26 231.602 578.471 230.98C579.682 230.359 581.017 230.02 582.378 229.988L610.929 229.324L614.182 240.939Z"
                        fill="#FFBEBE" />
                    <path
                        d="M664.725 93.5353C678.123 93.5353 688.985 82.6738 688.985 69.2754C688.985 55.8769 678.123 45.0154 664.725 45.0154C651.326 45.0154 640.465 55.8769 640.465 69.2754C640.465 82.6738 651.326 93.5353 664.725 93.5353Z"
                        fill="#FFBEBE" />
                    <path
                        d="M688.985 113.078L647.877 123.86C654.803 110.541 657.02 98.1079 653.269 86.7966L682.246 82.0793C680.383 92.8953 682.8 104.012 688.985 113.078V113.078Z"
                        fill="#FFBEBE" />
                    <path
                        d="M683.592 231.504L654.034 238.353C651.747 238.883 649.344 238.5 647.335 237.286C645.326 236.073 643.87 234.124 643.275 231.853C642.93 230.536 642.888 229.159 643.151 227.823C643.415 226.488 643.977 225.229 644.796 224.142C645.615 223.055 646.67 222.167 647.881 221.546C649.092 220.924 650.428 220.585 651.789 220.553L680.34 219.889L683.592 231.504Z"
                        fill="#FFBEBE" />
                    <path
                        d="M725.845 507.389C722.393 508.964 719.502 499.2 716.59 502.061C708.445 510.065 688.907 508.271 688.907 508.271C688.251 508.06 687.644 507.718 687.124 507.266C686.604 506.814 686.181 506.261 685.881 505.641C685.581 505.021 685.41 504.346 685.379 503.657C685.347 502.969 685.455 502.281 685.697 501.636V501.636C685.987 500.864 686.46 500.174 687.075 499.625C687.69 499.076 688.43 498.685 689.23 498.485L697.892 496.319L711.492 472.401L726.314 470.525L726.689 471.137C729.554 475.756 731.402 480.932 732.108 486.321C732.814 491.709 732.363 497.187 730.784 502.387C729.552 506.337 727.874 506.463 725.845 507.389Z"
                        fill="#2F2E41" />
                    <path
                        d="M628.132 507.389C624.68 508.964 621.788 499.2 618.876 502.061C610.732 510.065 591.193 508.271 591.193 508.271C590.537 508.06 589.93 507.718 589.41 507.266C588.89 506.814 588.468 506.261 588.168 505.641C587.867 505.021 587.696 504.346 587.665 503.657C587.633 502.969 587.742 502.281 587.984 501.636V501.636C588.273 500.864 588.746 500.174 589.361 499.625C589.977 499.076 590.716 498.685 591.516 498.485L600.178 496.319L613.778 472.401L628.601 470.525L628.975 471.137C631.84 475.756 633.688 480.932 634.394 486.321C635.1 491.709 634.649 497.187 633.07 502.387C631.838 506.337 630.16 506.463 628.132 507.389Z"
                        fill="#2F2E41" />
                    <path
                        d="M693.165 49.0405L687.055 68.4801L634.229 67.5413C634.409 60.7398 636.71 54.1646 640.809 48.7342C644.908 43.3037 650.601 39.2892 657.092 37.2515C663.584 35.2137 670.55 35.2545 677.017 37.368C683.484 39.4816 689.13 43.5624 693.165 49.0405H693.165Z"
                        fill="#2F2E41" />
                    <path
                        d="M680.454 235.842L673.889 216.148L713.245 202.705L698.357 108.726C707.451 110.38 715.639 115.271 721.404 122.496C727.17 129.721 730.123 138.789 729.717 148.023L734.809 210.792L680.454 235.842Z"
                        fill="#FF00C7" />
                    <path d="M574.422 148.53L558.357 151.391L558.434 151.824L574.5 148.963L574.422 148.53Z"
                        fill="white" />
                    <path
                        d="M549.696 217.796L549.27 217.682L558.045 184.776L547.997 171.529L548.348 171.263L558.526 184.681L549.696 217.796Z"
                        fill="#CCCCCC" />
                    <path d="M554.65 199.01L554.254 199.201L568.211 228.178L568.607 227.987L554.65 199.01Z"
                        fill="#CCCCCC" />
                    <path
                        d="M550.488 235.135L550.063 235.022L558.838 202.115L548.789 188.868L549.14 188.602L559.319 202.021L550.488 235.135Z"
                        fill="#CCCCCC" />
                    <path d="M555.442 216.35L555.046 216.541L569.003 245.517L569.4 245.327L555.442 216.35Z"
                        fill="#CCCCCC" />
                    <path
                        d="M92.326 440.959L92.3 441.133L92.229 441.637L84.902 494.215L40.038 510.676L39.335 510.34L14.217 498.411L1.22899 448.576L0.338989 445.155L0.609989 445.052L56.176 424.176L92.293 440.94L92.326 440.959Z"
                        fill="#F9A826" />
                    <path
                        d="M39.335 510.34L14.217 498.411L0.338989 445.155L0.609989 445.052L36.811 460.325L39.335 510.34Z"
                        fill="#F9A826" />
                    <path opacity="0.2"
                        d="M39.965 509.731L20.859 473.117L23.313 462.738L11.756 449.128L10.772 449.964L21.906 463.076L13.589 498.262L14.846 498.559L20.405 475.039L38.82 510.329L39.965 509.731Z"
                        fill="black" />
                    <path
                        d="M92.326 441.605L92.229 441.637L36.811 460.97L1.22899 448.576L0.338989 445.155L0.609989 445.052L56.176 424.176L92.293 440.94L92.3 441.133L92.326 441.605Z"
                        fill="#3F3D56" />
                    <path
                        d="M37.7789 461.939L26.4819 453.224L29.0639 443.541L61.3399 431.922L83.2879 433.213L92.0029 440.636L92.6479 442.573L37.7789 461.939Z"
                        fill="#F9A826" />
                    <path
                        d="M0.984009 445.155L26.482 444.187L40.295 439.498L61.831 431.922L65.859 426.112L55.809 424.314L0.984009 445.155Z"
                        fill="#F9A826" />
                    <path d="M51.785 434.768L38.49 439.433L38.9174 440.651L52.2124 435.986L51.785 434.768Z"
                        fill="#CCCCCC" />
                    <path d="M751.339 507.173H145.243V509.173H751.339V507.173Z" fill="#3F3D56" />
                    <path
                        d="M801.616 445.798L760.683 454.601L752.32 414.328L767.725 393.641L781.589 391L796.994 406.625L801.616 445.798Z"
                        fill="#A5A5A5" />
                    <path
                        d="M782.69 447.554H758.04L754.68 430.964L751 412.784L756.5 404.864L767.07 408.164L778.51 424.014L781.38 440.164L781.58 441.314L782.69 447.554Z"
                        fill="#E6E6E6" />
                    <path
                        d="M824.063 437.875L795.674 441.176L800.736 405.085L812.179 394.741L822.082 397.162L828.685 412.347L824.063 437.875Z"
                        fill="#A8A8A8" />
                    <path
                        d="M827.8 416.524L825.16 431.054L816.58 480.564L783.57 491.134L782.43 490.514L764.64 480.784L754.63 430.944L754.68 430.964L781.15 441.614L781.38 440.164L781.54 439.114L783.57 426.214L792.59 416.524L822.74 409.264L827.8 416.524Z"
                        fill="#727272" />
                    <path
                        d="M806.898 414.988C810.787 414.988 813.94 411.835 813.94 407.946C813.94 404.056 810.787 400.903 806.898 400.903C803.008 400.903 799.855 404.056 799.855 407.946C799.855 411.835 803.008 414.988 806.898 414.988Z"
                        fill="#727272" />
                    <path d="M789.583 411.58L773.518 414.441L773.595 414.874L789.661 412.013L789.583 411.58Z"
                        fill="white" />
                    <path
                        d="M782.43 490.514L764.64 480.784L754.63 430.944L754.68 430.964L751 412.784L756.5 404.864L767.07 408.164L778.51 424.014L781.38 440.164L781.54 439.114L781.58 441.314L781.69 447.554L782.43 490.514Z"
                        fill="#9E9E9E" />
                    <path
                        d="M764.857 480.846L764.431 480.732L773.206 447.826L763.158 434.579L763.509 434.313L773.687 447.731L764.857 480.846Z"
                        fill="#CCCCCC" />
                    <path d="M769.811 462.06L769.415 462.251L783.372 491.228L783.768 491.037L769.811 462.06Z"
                        fill="#CCCCCC" />
                    <path opacity="0.2"
                        d="M826.068 428.039L824.415 437.169L824.332 437.178L816.933 479.863L783.922 490.426L783.724 490.521L783.592 490.246L764.996 480.083L764.783 480.026L764.897 479.594L754.983 430.237L755.034 430.257L753.935 424.839L754.756 423.657L757.294 420.004L767.857 423.305L779.301 439.15L779.468 440.092L780.67 446.852L781.152 449.568L782.171 455.305L783.139 449.141L783.487 446.923L784.362 441.351L793.385 431.667L797.397 430.701L800.19 430.028L804.032 429.104C802.841 428.379 801.891 427.318 801.303 426.053C800.716 424.788 800.517 423.377 800.732 422C800.947 420.622 801.566 419.339 802.511 418.313C803.456 417.288 804.685 416.566 806.04 416.239C807.396 415.912 808.818 415.996 810.127 416.478C811.435 416.961 812.571 417.821 813.39 418.95C814.209 420.078 814.674 421.425 814.727 422.818C814.78 424.212 814.418 425.59 813.687 426.778L823.535 424.405L825.962 427.889L826.068 428.039Z"
                        fill="black" />
                    <path
                        d="M783.482 464.898H758.834L751.792 430.127L757.294 422.204L767.857 425.505L779.301 441.35L783.482 464.898Z"
                        fill="#E6E6E6" />
                    <path
                        d="M817.373 497.909L784.362 508.472L765.436 498.129L755.423 448.283L781.942 458.956L784.362 443.551L793.385 433.868L823.535 426.606L828.597 433.868L825.956 448.393L817.373 497.909Z"
                        fill="#727272" />
                    <path
                        d="M783.24 507.514L765.45 497.784L755.44 447.944L755.49 447.964L751.81 429.784L757.31 421.864L767.88 425.164L779.32 441.014L782.19 457.164L782.35 456.114L782.39 458.314L782.5 464.554L783.24 507.514Z"
                        fill="#A5A5A5" />
                    <path
                        d="M765.649 498.185L765.224 498.072L773.999 465.165L763.95 451.918L764.301 451.652L774.48 465.071L765.649 498.185Z"
                        fill="#CCCCCC" />
                    <path d="M770.604 479.4L770.207 479.591L784.164 508.568L784.561 508.377L770.604 479.4Z"
                        fill="#CCCCCC" />
                </svg>