<svg width="218" height="235" viewBox="0 0 218 235" fill="none" xmlns="http://www.w3.org/2000/svg">
<path d="M156.354 79.4611C156.083 87.8401 153.157 95.9176 147.999 102.533C142.797 109.586 139.827 113.751 139.09 115.027C135.463 122.033 133.737 129.864 134.083 137.743V138.035H98.3197V137.84C98.5804 129.935 96.7528 122.101 93.0202 115.124C90.3552 110.814 87.4686 106.644 84.3718 102.631C79.213 96.0149 76.2877 87.9374 76.016 79.5584C75.8983 69.0931 80.1928 59.06 87.8506 51.9104C103.546 36.5273 128.694 36.5273 144.39 51.9104C152.07 59.0143 156.411 69.0097 156.354 79.4611ZM142.699 101.982L144.357 99.7428C155.669 86.2612 154.063 66.2172 140.748 54.7012C127.146 41.3414 105.322 41.3414 91.7195 54.7012C78.4048 66.2172 76.7988 86.2611 88.1106 99.7428L93.4101 106.979C94.8366 108.78 96.0478 110.74 97.019 112.82C100.813 119.112 102.835 126.31 102.871 133.654H107.325V102.534L98.4171 84.7505H103.164L111.812 102.533V133.654H120.721V102.534L129.369 84.7506H134.116L125.208 102.534V133.654H129.662C129.748 126.317 131.766 119.133 135.514 112.821C137.571 109.375 139.807 106.039 142.212 102.826L142.504 102.534C142.461 102.166 142.526 101.982 142.699 101.982ZM102.969 146.959V142.578H129.694V146.959H102.969ZM102.969 155.85V151.469H129.694V155.915H102.969V155.85ZM107.423 164.742V160.361H125.24V164.807H107.423V164.742Z" fill="#231F20"/>
<path d="M156.354 79.4611C156.083 87.8401 153.157 95.9176 147.999 102.533C142.797 109.586 139.827 113.751 139.09 115.027C135.463 122.033 133.737 129.864 134.083 137.743V138.035H98.3197V137.84C98.5804 129.935 96.7528 122.101 93.0202 115.124C90.3552 110.814 87.4686 106.644 84.3718 102.631C79.213 96.0149 76.2877 87.9374 76.016 79.5584C75.8983 69.0931 80.1928 59.06 87.8506 51.9104C103.546 36.5273 128.694 36.5273 144.39 51.9104C152.07 59.0143 156.411 69.0097 156.354 79.4611ZM142.699 101.982L144.357 99.7428C155.669 86.2612 154.063 66.2172 140.748 54.7012C127.146 41.3414 105.322 41.3414 91.7195 54.7012C78.4048 66.2172 76.7988 86.2611 88.1106 99.7428L93.4101 106.979C94.8366 108.78 96.0478 110.74 97.019 112.82C100.813 119.112 102.835 126.31 102.871 133.654H107.325V102.534L98.4171 84.7505H103.164L111.812 102.533V133.654H120.721V102.534L129.369 84.7506H134.116L125.208 102.534V133.654H129.662C129.748 126.317 131.766 119.133 135.514 112.821C137.571 109.375 139.807 106.039 142.212 102.826L142.504 102.534C142.461 102.166 142.526 101.982 142.699 101.982ZM102.969 146.959V142.578H129.694V146.959H102.969ZM102.969 155.85V151.469H129.694V155.915H102.969V155.85ZM107.423 164.742V160.361H125.24V164.807H107.423V164.742Z" fill="#231F20"/>
<path d="M115.118 163.472C112.47 179.283 115.834 196.049 124.505 209.543C126.446 212.565 128.668 215.451 131.455 217.72C134.951 220.565 139.188 222.325 143.376 223.998C149.415 226.412 155.54 228.742 161.946 229.872C168.352 231.002 175.117 230.873 181.16 228.47C183.144 227.681 185.078 226.619 186.462 224.996C187.846 223.372 188.603 221.106 188.018 219.056L188.182 220.206C185.442 203.616 182.131 187.233 182.419 170.418C182.563 167.688 183.282 164.957 184.29 162.37C184.578 161.508 185.01 160.789 185.298 159.927C186.018 158.059 187.17 156.478 188.034 154.609C188.178 154.466 188.322 154.322 188.466 154.178C188.898 153.172 189.474 152.31 190.05 151.304C194.802 143.687 200.561 137.507 204.017 129.459C209.632 116.956 212.8 103.734 213.376 90.0815C213.52 86.2012 213.376 82.1772 213.088 78.2969C212.8 74.4166 212.08 70.6801 211.216 66.656C211.216 66.5123 210.928 66.2249 210.928 66.0812C210.352 63.0632 209.344 60.4763 208.48 57.602C208.192 56.7397 207.76 56.0211 207.473 55.1589C206.033 51.8534 204.593 48.8354 202.721 45.6737C201.713 44.0928 200.705 42.7994 199.841 41.2185C199.553 40.7874 199.265 40.5 198.977 40.2125C198.257 39.0628 197.393 38.0568 196.529 37.0508C196.385 36.9071 196.385 36.6197 196.241 36.4759C189.474 28.4279 181.843 22.2482 172.771 17.3619C169.316 15.4936 165.86 14.0564 162.404 12.4756C162.116 12.3319 161.972 12.4756 161.684 12.3319C157.509 10.6073 153.477 9.31385 149.013 8.30784C148.869 8.30784 148.581 8.02041 148.437 8.02041C116.472 0.547245 82.4907 2.41554 56.5729 24.1165C48.0776 31.3022 41.7421 39.6377 37.4224 49.554C34.1107 56.8834 31.6629 64.644 31.8069 72.6921C31.9509 73.9855 32.2389 75.4226 32.5268 76.7161C32.8148 77.8658 33.5348 78.8718 33.6787 80.0215C32.0949 82.4647 30.511 84.7641 28.6392 87.2072C22.7356 94.8241 16.9761 101.291 11.2166 109.052C9.92069 110.92 8.76879 112.501 7.61688 114.369C6.177 116.669 5.02509 118.968 4.59313 121.699C4.44914 123.28 4.88111 124.861 6.03301 126.01C7.04093 127.016 8.19283 128.022 9.48873 128.597C10.7846 129.172 11.9365 130.034 13.2324 130.465C15.2483 131.184 17.4081 131.04 19.5679 131.759C21.1518 132.334 22.5917 133.771 22.1597 135.639C21.5837 137.939 20.8638 140.094 20.1439 142.25C19.5679 143.831 18.272 144.981 17.2641 146.561C16.6881 147.567 16.6881 148.861 16.9761 150.011C17.84 152.31 19.9999 153.46 21.8717 154.897C22.7356 155.615 22.0157 156.621 21.5837 157.196C20.1439 158.777 18.272 160.214 17.984 162.37C18.704 164.238 20.2878 165.532 21.5837 166.969C21.8717 167.256 22.0157 167.688 22.3037 167.975C22.4477 168.119 22.4477 168.406 22.5917 168.55C22.7356 168.694 22.8796 168.837 23.0236 168.981C23.7436 170.418 24.4635 171.855 24.3195 173.58C24.1755 174.73 23.8875 175.736 23.5996 176.742C21.7277 182.203 18.704 187.951 20.5758 193.844C22.1597 197.149 24.4635 200.023 27.7752 201.892C27.9192 202.035 28.0632 202.179 28.2072 202.323C30.511 203.616 32.8148 204.335 35.2626 205.053C44.6219 205.341 53.9811 205.197 63.3403 205.485C66.796 205.485 70.1078 207.065 72.2676 210.083C72.4116 210.227 72.5556 210.227 72.6996 210.371C72.9875 210.802 73.2755 211.233 73.5635 211.664C73.8515 212.239 74.1394 212.958 74.5714 213.533C77.5952 220 79.179 227.185 78.3868 234.227" stroke="black" stroke-width="7.5" stroke-miterlimit="10"/>
<ellipse cx="131.5" cy="116" rx="4.5" ry="6" fill="#FFA500"/>
<ellipse cx="89.5" cy="97" rx="4.5" ry="6" fill="#FFA500"/>
<path d="M100.364 120.192C102.052 117.754 103 114.448 103 111C103 107.552 102.052 104.246 100.364 101.808C98.6761 99.3696 96.3869 98 94 98C91.6131 98 89.3239 99.3696 87.636 101.808L94 111L100.364 120.192Z" fill="#FFA500"/>
<path d="M127.484 116.899C130.447 117.008 133.744 116.025 136.649 114.168C139.554 112.311 141.829 109.731 142.973 106.995C144.118 104.26 144.039 101.594 142.753 99.5825C141.467 97.5715 139.08 96.3807 136.117 96.272L131.801 106.586L127.484 116.899Z" fill="#FFA500"/>
<rect x="100" y="88" width="32" height="50" fill="#FFA500"/>
<ellipse cx="117.311" cy="77.0417" rx="38.5733" ry="34.0526" transform="rotate(-0.457963 117.311 77.0417)" fill="#FFA500"/>
<path d="M156.341 80.088C156.069 88.467 153.144 96.5445 147.985 103.16C142.783 110.213 139.813 114.378 139.077 115.654C135.45 122.66 133.723 130.491 134.07 138.37V138.662H98.306V138.467C98.5668 130.562 96.7391 122.728 93.0065 115.751C90.3416 111.441 87.4549 107.271 84.3581 103.258C79.1993 96.6418 76.2741 88.5643 76.0024 80.1853C75.8846 69.72 80.1792 59.687 87.8369 52.5373C103.532 37.1542 128.681 37.1542 144.376 52.5373C152.057 59.6413 156.397 69.6367 156.341 80.088ZM142.685 102.609L144.344 100.37C155.655 86.8882 154.049 66.8441 140.735 55.3281C127.132 41.9684 105.308 41.9684 91.7059 55.3281C78.3911 66.8441 76.7851 86.888 88.0969 100.37L93.3964 107.606C94.8229 109.407 96.0341 111.367 97.0053 113.447C100.799 119.739 102.821 126.937 102.858 134.281H107.312V103.161L98.4035 85.3774H103.15L111.799 103.16V134.281H120.707V103.161L129.355 85.3776H134.102L125.194 103.161V134.281H129.648C129.734 126.944 131.753 119.759 135.5 113.448C137.557 110.002 139.793 106.666 142.198 103.453L142.491 103.161C142.447 102.793 142.512 102.609 142.685 102.609ZM102.955 147.586V143.205H129.681V147.586H102.955ZM102.955 156.477V152.096H129.681V156.542H102.955V156.477ZM107.41 165.369V160.988H125.226V165.433H107.41V165.369Z" fill="#231F20"/>
</svg>
