<svg width="63" height="38" viewBox="0 0 63 38" fill="none" xmlns="http://www.w3.org/2000/svg">
<g clip-path="url(#clip0)">
<path d="M17.5 12.5C17.5 13.328 16.94 14 16.25 14C15.56 14 15 13.328 15 12.5C15 11.672 15.56 11 16.25 11C16.94 11 17.5 11.672 17.5 12.5ZM9.75 11C9.06 11 8.5 11.672 8.5 12.5C8.5 13.328 9.06 14 9.75 14C10.44 14 11 13.328 11 12.5C11 11.672 10.44 11 9.75 11ZM13 19.354C15.235 19.354 16 17 16 17H10C10 17 10.847 19.354 13 19.354ZM26 12.604C26 15.469 25.209 18.382 24.067 20.847C23.525 22.016 22.904 23.085 22.25 24L18.454 22.083C16.898 23.27 15.084 24 13 24C11.007 24 9.175 23.251 7.592 22.059L3.75 24C3.096 23.085 2.475 22.016 1.933 20.847C0.791 18.382 0 15.469 0 12.604C0 5.014 5.281 0 13 0C20.719 0 26 5.014 26 12.604V12.604ZM20.331 16.889C20.454 16.687 20.644 16.535 20.867 16.459C22.973 15.746 23.437 12.93 22.669 11.713C16.093 11.323 11.779 8.35 10 5.391C7.743 10.454 4.922 12.019 3.137 12.186C2.655 13.9 3.459 15.892 5.133 16.459C5.357 16.535 5.546 16.687 5.669 16.889C7.377 19.719 9.684 22 13 22C16.318 22 18.624 19.716 20.331 16.889Z" fill="#FFA500"/>
</g>
<g clip-path="url(#clip1)">
<path d="M55.5 13.5C55.5 14.328 54.94 15 54.25 15C53.56 15 53 14.328 53 13.5C53 12.672 53.56 12 54.25 12C54.94 12 55.5 12.672 55.5 13.5ZM47.75 12C47.06 12 46.5 12.672 46.5 13.5C46.5 14.328 47.06 15 47.75 15C48.44 15 49 14.328 49 13.5C49 12.672 48.44 12 47.75 12ZM63 14.313C63 16.078 62.015 18.304 59.861 19.219C57.798 22.514 54.874 25 51 25C47.259 25 44.154 22.438 42.139 19.219C39.985 18.303 39 16.077 39 14.313C39 12.26 39.754 11.287 40.417 10.824C40.027 9.3 39.387 5.678 41.38 3.415C42.318 2.35 43.844 1.875 45.5 2.141C46.219 0.609 49.112 0 51 0C54 0 57.609 0.641 60.141 3.516C62.11 5.752 61.789 9.257 61.529 10.785C62.205 11.231 63 12.204 63 14.313V14.313ZM53.4 19H48.6C48.6 19 49.278 20.883 51 20.883C52.788 20.883 53.4 19 53.4 19V19ZM60.463 12.492C56.353 12.885 52.685 9.434 51.39 7.218C51.309 8.027 51.576 9.775 52.359 10.573C49.184 10.637 46.524 8.981 44.899 6.705C44.062 8.104 43.657 9.793 43.657 11.48C43.657 12.202 42.911 12.688 42.251 12.394C42.111 12.331 41.815 12.293 41.58 12.447C40.58 13.095 40.685 16.63 43.133 17.459C43.357 17.535 43.546 17.687 43.669 17.889C44.324 18.975 45.023 19.869 45.755 20.611C46.677 21.244 46.811 18.736 47.422 17.891C48.108 16.942 49.877 16.765 51 17.569C52.124 16.765 53.892 16.942 54.578 17.891C55.189 18.737 55.323 21.245 56.245 20.611C56.976 19.87 57.675 18.975 58.331 17.889C58.454 17.687 58.644 17.535 58.867 17.459C61.23 16.659 61.463 13.274 60.463 12.492Z" fill="#FFA500"/>
</g>
<path d="M27.5 26.5C27.5 27.328 26.94 28 26.25 28C25.56 28 25 27.328 25 26.5C25 25.672 25.56 25 26.25 25C26.94 25 27.5 25.672 27.5 26.5ZM19.75 25C19.06 25 18.5 25.672 18.5 26.5C18.5 27.328 19.06 28 19.75 28C20.44 28 21 27.328 21 26.5C21 25.672 20.44 25 19.75 25ZM23 33.354C25.235 33.354 26 31 26 31H20C20 31 20.847 33.354 23 33.354ZM35 27.551C35 29.476 34.104 32.289 31.683 32.739C29.724 36.231 26.806 38 23 38C19.194 38 16.276 36.231 14.317 32.74C11.896 32.289 11 29.477 11 27.551C11 25.404 11.809 23.458 13.843 23.328C14.296 18.229 17.789 15 23 15C28.211 15 31.704 18.229 32.157 23.329C34.193 23.458 35 25.402 35 27.551ZM32.369 25.435C32.097 25.257 31.754 25.331 31.613 25.394C30.952 25.687 30.207 25.203 30.207 24.48C30.207 23.136 29.892 19.473 26.747 17.826C28.051 19.18 28.5 21.618 28.5 23H15.908C15.818 23.601 15.793 24.124 15.793 24.48C15.793 25.203 15.048 25.687 14.387 25.394C14.245 25.331 13.903 25.257 13.631 25.435C12.529 26.151 12.833 30.761 14.968 30.802C15.335 30.809 15.67 31.018 15.838 31.345C18.229 36 21.819 36 23 36C24.181 36 27.771 36 30.162 31.345C30.33 31.017 30.665 30.809 31.032 30.802C33.166 30.76 33.472 26.151 32.369 25.435ZM31.75 18.687C35.547 17.594 32.125 26.033 39 26C36.734 24.531 38.107 20.524 37.5 17.834C36.982 15.541 35.172 15 34 15C32.125 15 30.894 16.106 30.397 16.922C30.941 17.4 31.411 18.146 31.75 18.687V18.687ZM15.603 16.922C15.106 16.106 13.875 15 12 15C10.828 15 9.018 15.541 8.5 17.834C7.893 20.524 9.266 24.531 7 26C13.875 26.033 10.453 17.594 14.25 18.687C14.589 18.146 15.059 17.4 15.603 16.922V16.922Z" fill="#FFA500"/>
<path d="M51.5 26.5C51.5 27.328 50.94 28 50.25 28C49.56 28 49 27.328 49 26.5C49 25.672 49.56 25 50.25 25C50.94 25 51.5 25.672 51.5 26.5ZM43.75 25C43.06 25 42.5 25.672 42.5 26.5C42.5 27.328 43.06 28 43.75 28C44.44 28 45 27.328 45 26.5C45 25.672 44.44 25 43.75 25ZM47 33.354C49.235 33.354 50 31 50 31H44C44 31 44.847 33.354 47 33.354ZM59 27.551C59 29.476 58.104 32.289 55.683 32.739C53.724 36.231 50.806 38 47 38C43.195 38 40.276 36.231 38.317 32.74C35.897 32.289 35 29.477 35 27.551C35 25.412 35.804 23.458 37.843 23.328C38.296 18.229 41.789 15 47 15C52.211 15 55.704 18.229 56.157 23.329C58.193 23.458 59 25.402 59 27.551ZM57 27.551C57 26.467 56.771 25.695 56.369 25.434C56.097 25.257 55.754 25.33 55.613 25.393C54.955 25.686 54.207 25.203 54.207 24.479C54.207 23.724 54.107 22.233 53.464 20.779C52.305 18.623 50.777 22.087 47 22.087C43.223 22.087 41.695 18.623 40.536 20.78C39.893 22.233 39.793 23.724 39.793 24.48C39.793 25.199 39.049 25.689 38.387 25.394C38.244 25.331 37.904 25.258 37.631 25.435C36.529 26.152 36.833 30.761 38.967 30.802C39.335 30.809 39.67 31.018 39.838 31.345C42.228 36 45.82 36 47 36C48.181 36 51.771 36 54.162 31.345C54.33 31.017 54.665 30.809 55.032 30.802C56.885 30.766 57 27.583 57 27.551V27.551Z" fill="#FFA500"/>
<defs>
<clipPath id="clip0">
<rect width="26" height="24" fill="white"/>
</clipPath>
<clipPath id="clip1">
<rect width="24" height="25" fill="white" transform="translate(39)"/>
</clipPath>
</defs>
</svg>
