<svg width="50" height="53" viewBox="0 0 50 53" fill="none" xmlns="http://www.w3.org/2000/svg">
<circle cx="25" cy="28" r="25" fill="black"/>
<path d="M19.568 47.616C21.104 47.616 22.24 46.8 22.976 45.168C23.744 43.536 24.128 41.232 24.128 38.256V10.32H28.448V38.256C28.448 40.752 28.176 42.736 27.632 44.208C27.12 45.712 26.224 46.816 24.944 47.52C23.664 48.224 21.872 48.576 19.568 48.576V47.616Z" fill="white"/>
<mask id="mask0" mask-type="alpha" maskUnits="userSpaceOnUse" x="19" y="10" width="10" height="39">
<path d="M19.568 47.616C21.104 47.616 22.24 46.8 22.976 45.168C23.744 43.536 24.128 41.232 24.128 38.256V10.32H28.448V38.256C28.448 40.752 28.176 42.736 27.632 44.208C27.12 45.712 26.224 46.816 24.944 47.52C23.664 48.224 21.872 48.576 19.568 48.576V47.616Z" fill="black"/>
</mask>
<g mask="url(#mask0)">
<path d="M26.5 38V25V20V14V8L17.1768 12.8818L19.5 48.5L24.5 46.5L25.5 45.5L26 43.5L26.5 41V38Z" fill="#FFA500"/>
</g>
</svg>
