<svg width="50" height="50" viewBox="0 0 50 50" fill="none" xmlns="http://www.w3.org/2000/svg">
<circle cx="25" cy="25" r="25" fill="#FFA500"/>
<path d="M25.2428 25.9045C31.5261 25.9038 33.7873 19.5332 34.3791 14.2994C35.1083 7.85224 32.0978 3 25.2428 3C18.3892 3 15.3773 7.85189 16.1065 14.2994C16.699 19.5327 18.9591 25.9052 25.2428 25.9045Z" fill="#030000"/>
<path d="M41.998 41.0752C41.9293 39.0444 41.6943 37.0044 41.3444 35.0052C40.9204 32.5833 40.3807 29.0328 38.2927 27.4549C37.0852 26.5424 35.5215 26.243 34.1391 25.6927C33.4663 25.425 32.8636 25.1591 32.2979 24.8565C30.3887 26.9767 27.8991 28.0859 24.9996 28.086C22.1012 28.086 19.6119 26.9768 17.7026 24.8565C17.1369 25.1592 16.5342 25.4251 15.8614 25.6927C14.479 26.243 12.9154 26.5423 11.708 27.4549C9.61983 29.0332 9.08024 32.5837 8.65632 35.0052C8.30628 37.0044 8.07121 39.0444 8.00259 41.0752C7.94945 42.6482 8.7164 42.8687 10.0159 43.3436C11.6431 43.9378 13.3231 44.379 15.0143 44.7406C18.2806 45.4391 21.6474 45.976 24.9998 46C28.3522 45.9759 31.7191 45.4391 34.9853 44.7406C36.6765 44.3791 38.3566 43.938 39.9837 43.3436C41.2837 42.8688 42.0506 42.6483 41.9974 41.0752H41.998Z" fill="#030000"/>
</svg>
